<?xml version="1.0" ?><svg height="32px" version="1.1" viewBox="0 0 32 32" width="32px" xmlns="http://www.w3.org/2000/svg" xmlns:xlink="http://www.w3.org/1999/xlink"><title/><desc/><defs/><g fill="none" fill-rule="evenodd" id="Page-1" stroke="none" stroke-width="1"><g id="letter-M-blue"><g id="Page-1" transform="translate(2.000000, 2.000000)"><path d="M10.0399,23.8803 L5.6269,6.3403 L5.6269,25.3453 C5.6269,26.3963 5.3919,27.1853 4.9229,27.7113 C4.4529,28.2373 3.8299,28.5003 3.0539,28.5003 C2.3029,28.5003 1.6889,28.2403 1.2139,27.7203 C0.7379,27.2013 0.4999,26.4093 0.4999,25.3453 L0.4999,3.5613 C0.4999,2.3593 0.8129,1.5483 1.4389,1.1293 C2.0649,0.7093 2.9099,0.5003 3.9739,0.5003 L5.7019,0.5003 C6.7409,0.5003 7.4949,0.5943 7.9649,0.7813 C8.4339,0.9693 8.7819,1.3073 9.0069,1.7953 C9.2319,2.2843 9.4889,3.0793 9.7769,4.1803 L13.7769,19.2603 L17.7769,4.1803 C18.0649,3.0793 18.3219,2.2843 18.5469,1.7953 C18.7719,1.3073 19.1199,0.9693 19.5889,0.7813 C20.0589,0.5943 20.8129,0.5003 21.8519,0.5003 L23.5799,0.5003 C24.6439,0.5003 25.4889,0.7093 26.1149,1.1293 C26.7409,1.5483 27.0539,2.3593 27.0539,3.5613 L27.0539,25.3453 C27.0539,26.3963 26.8189,27.1853 26.3499,27.7113 C25.8799,28.2373 25.2509,28.5003 24.4629,28.5003 C23.7239,28.5003 23.1169,28.2373 22.6409,27.7113 C22.1649,27.1853 21.9269,26.3963 21.9269,25.3453 L21.9269,6.3403 L17.5139,23.8803 C17.2259,25.0193 16.9909,25.8553 16.8099,26.3873 C16.6279,26.9193 16.2939,27.4043 15.8049,27.8423 C15.3169,28.2813 14.6409,28.5003 13.7769,28.5003 C13.1259,28.5003 12.5749,28.3593 12.1249,28.0773 C11.6739,27.7953 11.3229,27.4363 11.0729,26.9973 C10.8219,26.5593 10.6249,26.0743 10.4809,25.5423 C10.3369,25.0103 10.1899,24.4563 10.0399,23.8803" fill="#2FBBF4" id="Fill-1"/><path d="M10.0399,23.8803 L5.6269,6.3403 L5.6269,25.3453 C5.6269,26.3963 5.3919,27.1853 4.9229,27.7113 C4.4529,28.2373 3.8299,28.5003 3.0539,28.5003 C2.3029,28.5003 1.6889,28.2403 1.2139,27.7203 C0.7379,27.2013 0.4999,26.4093 0.4999,25.3453 L0.4999,3.5613 C0.4999,2.3593 0.8129,1.5483 1.4389,1.1293 C2.0649,0.7093 2.9099,0.5003 3.9739,0.5003 L5.7019,0.5003 C6.7409,0.5003 7.4949,0.5943 7.9649,0.7813 C8.4339,0.9693 8.7819,1.3073 9.0069,1.7953 C9.2319,2.2843 9.4889,3.0793 9.7769,4.1803 L13.7769,19.2603 L17.7769,4.1803 C18.0649,3.0793 18.3219,2.2843 18.5469,1.7953 C18.7719,1.3073 19.1199,0.9693 19.5889,0.7813 C20.0589,0.5943 20.8129,0.5003 21.8519,0.5003 L23.5799,0.5003 C24.6439,0.5003 25.4889,0.7093 26.1149,1.1293 C26.7409,1.5483 27.0539,2.3593 27.0539,3.5613 L27.0539,25.3453 C27.0539,26.3963 26.8189,27.1853 26.3499,27.7113 C25.8799,28.2373 25.2509,28.5003 24.4629,28.5003 C23.7239,28.5003 23.1169,28.2373 22.6409,27.7113 C22.1649,27.1853 21.9269,26.3963 21.9269,25.3453 L21.9269,6.3403 L17.5139,23.8803 C17.2259,25.0193 16.9909,25.8553 16.8099,26.3873 C16.6279,26.9193 16.2939,27.4043 15.8049,27.8423 C15.3169,28.2813 14.6409,28.5003 13.7769,28.5003 C13.1259,28.5003 12.5749,28.3593 12.1249,28.0773 C11.6739,27.7953 11.3229,27.4363 11.0729,26.9973 C10.8219,26.5593 10.6249,26.0743 10.4809,25.5423 C10.3369,25.0103 10.1899,24.4563 10.0399,23.8803 L10.0399,23.8803 Z" id="Stroke-3" stroke="#092933" stroke-linecap="round" stroke-linejoin="round"/><path d="M17.0289,22.7578 C16.7449,23.8818 16.5119,24.7128 16.3369,25.2268 C16.1839,25.6738 15.8929,26.0918 15.4709,26.4708 C15.0749,26.8268 14.5199,26.9998 13.7769,26.9998 C13.2229,26.9998 12.7569,26.8838 12.3899,26.6538 C12.0109,26.4178 11.7149,26.1138 11.5079,25.7498 C11.2799,25.3538 11.0969,24.9038 10.9639,24.4108 C10.8209,23.8808 10.6739,23.3278 10.5229,22.7538 L9.4409,19.4528 L10.5229,23.7538 C10.6739,24.3278 10.8209,24.8808 10.9639,25.4108 C11.0969,25.9038 11.2799,26.3538 11.5079,26.7498 C11.7149,27.1138 12.0109,27.4178 12.3899,27.6538 C12.7569,27.8838 13.2229,27.9998 13.7769,27.9998 C14.5199,27.9998 15.0749,27.8268 15.4709,27.4708 C15.8929,27.0918 16.1839,26.6738 16.3369,26.2268 C16.5119,25.7128 16.7449,24.8818 17.0289,23.7578 L18.1519,19.2938 L17.0289,22.7578 Z M25.9769,26.3778 C25.6039,26.7968 25.1079,26.9998 24.4629,26.9998 C23.8659,26.9998 23.3919,26.7958 23.0119,26.3758 C22.6239,25.9468 22.4269,25.2648 22.4269,24.3448 L22.4269,25.3448 C22.4269,26.2648 22.6239,26.9468 23.0119,27.3758 C23.3919,27.7958 23.8659,27.9998 24.4629,27.9998 C25.1079,27.9998 25.6039,27.7968 25.9769,27.3778 C26.3599,26.9488 26.5539,26.2648 26.5539,25.3448 L26.5539,24.3448 C26.5539,25.2648 26.3599,25.9488 25.9769,26.3778 L25.9769,26.3778 Z M3.0539,26.9998 C2.4439,26.9998 1.9629,26.7978 1.5829,26.3828 C1.1959,25.9608 0.9999,25.2758 0.9999,24.3448 L0.9999,25.3448 C0.9999,26.2758 1.1959,26.9608 1.5829,27.3828 C1.9629,27.7978 2.4439,27.9998 3.0539,27.9998 C3.6869,27.9998 4.1759,27.7968 4.5499,27.3778 C4.9319,26.9488 5.1269,26.2658 5.1269,25.3448 L5.1269,24.3448 C5.1269,25.2658 4.9319,25.9488 4.5499,26.3778 C4.1759,26.7968 3.6869,26.9998 3.0539,26.9998 L3.0539,26.9998 Z" fill="#332E09" id="Fill-5" opacity="0.203766325"/><path d="M19.2653,5.1868 L17.5543,11.3538" id="Stroke-7" stroke="#FFFFFF" stroke-dasharray="1,2,6,2,3" stroke-linecap="round" stroke-linejoin="round"/></g></g></g></svg>