<?xml version="1.0" ?><svg height="32px" version="1.1" viewBox="0 0 32 32" width="32px" xmlns="http://www.w3.org/2000/svg" xmlns:xlink="http://www.w3.org/1999/xlink"><title/><desc/><defs/><g fill="none" fill-rule="evenodd" id="Page-1" stroke="none" stroke-width="1"><g id="letter--H-blue"><g id="Page-1" transform="translate(4.000000, 2.000000)"><path d="M5.9855,3.8245 L5.9855,11.5815 L17.8245,11.5815 L17.8245,3.8245 C17.8245,2.7165 18.0735,1.8855 18.5725,1.3315 C19.0715,0.7765 19.7265,0.4995 20.5395,0.4995 C21.3645,0.4995 22.0325,0.7735 22.5435,1.3215 C23.0545,1.8695 23.3105,2.7045 23.3105,3.8245 L23.3105,25.1565 C23.3105,26.2775 23.0515,27.1145 22.5345,27.6685 C22.0175,28.2225 21.3525,28.4995 20.5395,28.4995 C19.7145,28.4995 19.0555,28.2195 18.5635,27.6595 C18.0705,27.0995 17.8245,26.2655 17.8245,25.1565 L17.8245,16.0515 L5.9855,16.0515 L5.9855,25.1565 C5.9855,26.2775 5.7265,27.1145 5.2095,27.6685 C4.6925,28.2225 4.0275,28.4995 3.2155,28.4995 C2.3905,28.4995 1.7315,28.2195 1.2385,27.6595 C0.7465,27.0995 0.5005,26.2655 0.5005,25.1565 L0.5005,3.8245 C0.5005,2.7165 0.7435,1.8855 1.2295,1.3315 C1.7155,0.7765 2.3775,0.4995 3.2155,0.4995 C4.0405,0.4995 4.7085,0.7735 5.2195,1.3215 C5.7305,1.8695 5.9855,2.7045 5.9855,3.8245" fill="#2FBBF4" id="Fill-1"/><path d="M5.9855,3.8245 L5.9855,11.5815 L17.8245,11.5815 L17.8245,3.8245 C17.8245,2.7165 18.0735,1.8855 18.5725,1.3315 C19.0715,0.7765 19.7265,0.4995 20.5395,0.4995 C21.3645,0.4995 22.0325,0.7735 22.5435,1.3215 C23.0545,1.8695 23.3105,2.7045 23.3105,3.8245 L23.3105,25.1565 C23.3105,26.2775 23.0515,27.1145 22.5345,27.6685 C22.0175,28.2225 21.3525,28.4995 20.5395,28.4995 C19.7145,28.4995 19.0555,28.2195 18.5635,27.6595 C18.0705,27.0995 17.8245,26.2655 17.8245,25.1565 L17.8245,16.0515 L5.9855,16.0515 L5.9855,25.1565 C5.9855,26.2775 5.7265,27.1145 5.2095,27.6685 C4.6925,28.2225 4.0275,28.4995 3.2155,28.4995 C2.3905,28.4995 1.7315,28.2195 1.2385,27.6595 C0.7465,27.0995 0.5005,26.2655 0.5005,25.1565 L0.5005,3.8245 C0.5005,2.7165 0.7435,1.8855 1.2295,1.3315 C1.7155,0.7765 2.3775,0.4995 3.2155,0.4995 C4.0405,0.4995 4.7085,0.7735 5.2195,1.3215 C5.7305,1.8695 5.9855,2.7045 5.9855,3.8245 L5.9855,3.8245 Z" id="Stroke-3" stroke="#092933" stroke-linejoin="round"/><path d="M22.1689,26.3278 C21.7469,26.7798 21.2139,26.9998 20.5399,26.9998 C19.8589,26.9998 19.3359,26.7808 18.9389,26.3298 C18.5309,25.8658 18.3249,25.1348 18.3249,24.1568 L18.3249,25.1568 C18.3249,26.1348 18.5309,26.8658 18.9389,27.3298 C19.3359,27.7808 19.8589,27.9998 20.5399,27.9998 C21.2139,27.9998 21.7469,27.7798 22.1689,27.3278 C22.5939,26.8718 22.8099,26.1408 22.8099,25.1568 L22.8099,24.1568 C22.8099,25.1408 22.5939,25.8718 22.1689,26.3278 M3.2149,26.9998 C2.5349,26.9998 2.0109,26.7798 1.6139,26.3298 C1.2069,25.8658 0.9999,25.1348 0.9999,24.1568 L0.9999,25.1568 C0.9999,26.1348 1.2069,26.8658 1.6139,27.3298 C2.0109,27.7798 2.5349,27.9998 3.2149,27.9998 C3.8899,27.9998 4.4229,27.7798 4.8449,27.3278 C5.2699,26.8718 5.4849,26.1418 5.4849,25.1568 L5.4849,24.1568 C5.4849,25.1418 5.2699,25.8718 4.8449,26.3278 C4.4229,26.7798 3.8899,26.9998 3.2149,26.9998" fill="#332E09" id="Fill-5" opacity="0.203766325"/><path d="M6.333,13.1348 L17.833,13.1348" id="Stroke-7" stroke="#FFFFFF" stroke-dasharray="1,2,6,2,3" stroke-linecap="round" stroke-linejoin="round"/></g></g></g></svg>