<?xml version="1.0" ?><svg height="32px" version="1.1" viewBox="0 0 32 32" width="32px" xmlns="http://www.w3.org/2000/svg" xmlns:xlink="http://www.w3.org/1999/xlink"><title/><desc/><defs/><g fill="none" fill-rule="evenodd" id="Page-1" stroke="none" stroke-width="1"><g id="letter-A-blue"><g id="Page-1" transform="translate(3.000000, 2.000000)"><path d="M8.9037,17.4551 L16.9937,17.4551 L12.9117,6.2811 L8.9037,17.4551 Z M19.7637,24.9721 L18.4707,21.5741 L7.4627,21.5741 L6.1697,25.0461 C5.6657,26.4001 5.2347,27.3151 4.8777,27.7891 C4.5207,28.2631 3.9357,28.5001 3.1227,28.5001 C2.4327,28.5001 1.8237,28.2471 1.2937,27.7431 C0.7647,27.2381 0.4997,26.6651 0.4997,26.0251 C0.4997,25.6561 0.5617,25.2741 0.6847,24.8801 C0.8077,24.4861 1.0107,23.9381 1.2937,23.2361 L8.2207,5.6531 C8.4177,5.1481 8.6547,4.5421 8.9317,3.8341 C9.2087,3.1261 9.5037,2.5381 9.8177,2.0701 C10.1317,1.6021 10.5447,1.2231 11.0557,0.9341 C11.5667,0.6451 12.1977,0.5001 12.9487,0.5001 C13.7117,0.5001 14.3487,0.6451 14.8597,0.9341 C15.3707,1.2231 15.7837,1.5961 16.0977,2.0511 C16.4117,2.5071 16.6767,2.9961 16.8917,3.5201 C17.1077,4.0431 17.3817,4.7421 17.7137,5.6161 L24.7877,23.0881 C25.3417,24.4181 25.6187,25.3851 25.6187,25.9881 C25.6187,26.6161 25.3567,27.1921 24.8337,27.7151 C24.3107,28.2381 23.6797,28.5001 22.9407,28.5001 C22.5097,28.5001 22.1407,28.4231 21.8327,28.2691 C21.5247,28.1151 21.2657,27.9061 21.0567,27.6411 C20.8477,27.3761 20.6227,26.9701 20.3827,26.4221 C20.1427,25.8741 19.9367,25.3911 19.7637,24.9721 L19.7637,24.9721 Z" fill="#2FBBF4" id="Fill-1"/><path d="M8.9037,17.4551 L16.9937,17.4551 L12.9117,6.2811 L8.9037,17.4551 L8.9037,17.4551 Z M19.7637,24.9721 L18.4707,21.5741 L7.4627,21.5741 L6.1697,25.0461 C5.6657,26.4001 5.2347,27.3151 4.8777,27.7891 C4.5207,28.2631 3.9357,28.5001 3.1227,28.5001 C2.4327,28.5001 1.8237,28.2471 1.2937,27.7431 C0.7647,27.2381 0.4997,26.6651 0.4997,26.0251 C0.4997,25.6561 0.5617,25.2741 0.6847,24.8801 C0.8077,24.4861 1.0107,23.9381 1.2937,23.2361 L8.2207,5.6531 C8.4177,5.1481 8.6547,4.5421 8.9317,3.8341 C9.2087,3.1261 9.5037,2.5381 9.8177,2.0701 C10.1317,1.6021 10.5447,1.2231 11.0557,0.9341 C11.5667,0.6451 12.1977,0.5001 12.9487,0.5001 C13.7117,0.5001 14.3487,0.6451 14.8597,0.9341 C15.3707,1.2231 15.7837,1.5961 16.0977,2.0511 C16.4117,2.5071 16.6767,2.9961 16.8917,3.5201 C17.1077,4.0431 17.3817,4.7421 17.7137,5.6161 L24.7877,23.0881 C25.3417,24.4181 25.6187,25.3851 25.6187,25.9881 C25.6187,26.6161 25.3567,27.1921 24.8337,27.7151 C24.3107,28.2381 23.6797,28.5001 22.9407,28.5001 C22.5097,28.5001 22.1407,28.4231 21.8327,28.2691 C21.5247,28.1151 21.2657,27.9061 21.0567,27.6411 C20.8477,27.3761 20.6227,26.9701 20.3827,26.4221 C20.1427,25.8741 19.9367,25.3911 19.7637,24.9721 L19.7637,24.9721 Z" id="Stroke-3" stroke="#092933" stroke-linejoin="round"/><path d="M4.4778,26.4883 C4.2188,26.8333 3.7748,27.0003 3.1228,27.0003 C2.5608,27.0003 2.0758,26.7983 1.6398,26.3823 C1.3358,26.0923 1.1488,25.7853 1.0608,25.4543 C1.0238,25.6493 0.9998,25.8413 0.9998,26.0253 C0.9998,26.5273 1.2088,26.9703 1.6398,27.3823 C2.0758,27.7983 2.5608,28.0003 3.1228,28.0003 C3.7748,28.0003 4.2188,27.8333 4.4778,27.4883 C4.8048,27.0533 5.2168,26.1733 5.7018,24.8713 L6.9488,21.5223 C6.9488,21.5223 4.7458,26.1323 4.4778,26.4883 L4.4778,26.4883 Z M7.1158,21.0743 L18.8158,21.0743 L7.1158,21.0743 Z M18.9508,21.4293 L20.2268,24.7823 C20.3968,25.1973 20.6018,25.6763 20.8408,26.2203 C21.0618,26.7273 21.2678,27.1003 21.4498,27.3323 C21.6128,27.5393 21.8118,27.7003 22.0548,27.8223 C22.2928,27.9403 22.5908,28.0003 22.9408,28.0003 C23.5468,28.0003 24.0508,27.7913 24.4798,27.3613 C24.9098,26.9313 25.1188,26.4823 25.1188,25.9883 C25.1188,25.8603 25.0998,25.6793 25.0508,25.4363 C24.9598,25.7593 24.7758,26.0653 24.4798,26.3613 C24.0508,26.7913 23.5468,27.0003 22.9408,27.0003 C22.5908,27.0003 22.2928,26.9403 22.0548,26.8223 C21.8118,26.7003 21.6128,26.5393 21.4498,26.3323 C21.2678,26.1003 21.0618,25.7273 20.8408,25.2203 C20.6018,24.6763 20.3968,24.1973 20.2268,23.7823 L18.9508,21.4293 Z M18.8158,20.0743 L7.1158,20.0743 L18.8158,20.0743 Z" fill="#332E09" id="Fill-5" opacity="0.203008396"/><path d="M9.7684,5.9785 L7.2054,12.6035" id="Stroke-7" stroke="#FFFFFF" stroke-dasharray="1,2,6,2,3" stroke-linecap="round" stroke-linejoin="round"/></g></g></g></svg>