<?xml version="1.0" ?><svg height="32px" version="1.1" viewBox="0 0 32 32" width="32px" xmlns="http://www.w3.org/2000/svg" xmlns:xlink="http://www.w3.org/1999/xlink"><title/><desc/><defs/><g fill="none" fill-rule="evenodd" id="Page-1" stroke="none" stroke-width="1"><g id="letter-B-blue"><g id="Page-1" transform="translate(4.000000, 2.000000)"><path d="M12.0744,16.0662 L6.1724,16.0662 L6.1724,24.2412 L12.2654,24.2412 C16.0984,24.2412 18.0144,22.8592 18.0144,20.0962 C18.0144,18.6832 17.5174,17.6582 16.5244,17.0212 C15.5314,16.3842 14.0484,16.0662 12.0744,16.0662 L12.0744,16.0662 Z M6.1724,4.7592 L6.1724,11.9982 L11.3674,11.9982 C12.7814,11.9982 13.8734,11.8642 14.6434,11.5972 C15.4134,11.3292 16.0024,10.8202 16.4104,10.0692 C16.7284,9.5342 16.8874,8.9352 16.8874,8.2732 C16.8874,6.8602 16.3844,5.9212 15.3784,5.4562 C14.3724,4.9912 12.8384,4.7592 10.7754,4.7592 L6.1724,4.7592 Z M12.4944,28.5002 L3.9384,28.5002 C2.7024,28.5002 1.8214,28.2232 1.2924,27.6692 C0.7644,27.1152 0.5004,26.2332 0.5004,25.0242 L0.5004,3.9762 C0.5004,2.7412 0.7704,1.8532 1.3114,1.3122 C1.8534,0.7702 2.7284,0.5002 3.9384,0.5002 L13.0104,0.5002 C14.3474,0.5002 15.5064,0.5832 16.4864,0.7482 C17.4664,0.9142 18.3454,1.2322 19.1224,1.7032 C19.7844,2.0982 20.3704,2.5982 20.8794,3.2022 C21.3884,3.8072 21.7774,4.4762 22.0444,5.2082 C22.3114,5.9402 22.4454,6.7142 22.4454,7.5282 C22.4454,10.3302 21.0444,12.3802 18.2434,13.6792 C21.9234,14.8502 23.7634,17.1292 23.7634,20.5162 C23.7634,22.0822 23.3624,23.4932 22.5604,24.7472 C21.7574,26.0012 20.6754,26.9272 19.3134,27.5262 C18.4604,27.8822 17.4794,28.1342 16.3714,28.2802 C15.2644,28.4272 13.9714,28.5002 12.4944,28.5002 L12.4944,28.5002 Z" fill="#2FBBF4" id="Fill-1"/><path d="M12.0744,16.0662 L6.1724,16.0662 L6.1724,24.2412 L12.2654,24.2412 C16.0984,24.2412 18.0144,22.8592 18.0144,20.0962 C18.0144,18.6832 17.5174,17.6582 16.5244,17.0212 C15.5314,16.3842 14.0484,16.0662 12.0744,16.0662 L12.0744,16.0662 Z M6.1724,4.7592 L6.1724,11.9982 L11.3674,11.9982 C12.7814,11.9982 13.8734,11.8642 14.6434,11.5972 C15.4134,11.3292 16.0024,10.8202 16.4104,10.0692 C16.7284,9.5342 16.8874,8.9352 16.8874,8.2732 C16.8874,6.8602 16.3844,5.9212 15.3784,5.4562 C14.3724,4.9912 12.8384,4.7592 10.7754,4.7592 L6.1724,4.7592 L6.1724,4.7592 Z M12.4944,28.5002 L3.9384,28.5002 C2.7024,28.5002 1.8214,28.2232 1.2924,27.6692 C0.7644,27.1152 0.5004,26.2332 0.5004,25.0242 L0.5004,3.9762 C0.5004,2.7412 0.7704,1.8532 1.3114,1.3122 C1.8534,0.7702 2.7284,0.5002 3.9384,0.5002 L13.0104,0.5002 C14.3474,0.5002 15.5064,0.5832 16.4864,0.7482 C17.4664,0.9142 18.3454,1.2322 19.1224,1.7032 C19.7844,2.0982 20.3704,2.5982 20.8794,3.2022 C21.3884,3.8072 21.7774,4.4762 22.0444,5.2082 C22.3114,5.9402 22.4454,6.7142 22.4454,7.5282 C22.4454,10.3302 21.0444,12.3802 18.2434,13.6792 C21.9234,14.8502 23.7634,17.1292 23.7634,20.5162 C23.7634,22.0822 23.3624,23.4932 22.5604,24.7472 C21.7574,26.0012 20.6754,26.9272 19.3134,27.5262 C18.4604,27.8822 17.4794,28.1342 16.3714,28.2802 C15.2644,28.4272 13.9714,28.5002 12.4944,28.5002 L12.4944,28.5002 Z" id="Stroke-3" stroke="#092933" stroke-linejoin="round"/><path d="M23.2295,20.0303 C23.1495,21.2893 22.7955,22.4513 22.1385,23.4773 C21.3945,24.6413 20.3765,25.5123 19.1125,26.0683 C18.3135,26.4023 17.3665,26.6443 16.3065,26.7843 C15.2255,26.9273 13.9425,27.0003 12.4945,27.0003 L3.9375,27.0003 C2.8505,27.0003 2.0825,26.7723 1.6545,26.3243 C1.2205,25.8693 1.0005,25.0943 1.0005,24.0233 L1.0005,25.0233 C1.0005,26.0943 1.2205,26.8693 1.6545,27.3243 C2.0825,27.7723 2.8505,28.0003 3.9375,28.0003 L12.4945,28.0003 C13.9425,28.0003 15.2255,27.9273 16.3065,27.7843 C17.3665,27.6443 18.3135,27.4023 19.1125,27.0683 C20.3765,26.5123 21.3945,25.6413 22.1385,24.4773 C22.8855,23.3113 23.2635,21.9783 23.2635,20.5163 C23.2635,20.3473 23.2395,20.1933 23.2295,20.0303" fill="#332E09" id="Fill-5" opacity="0.203766325"/><path d="M6.2142,2.0312 L14.8872,2.0312" id="Stroke-7" stroke="#FFFFFF" stroke-dasharray="1,2,6,2,3" stroke-linecap="round" stroke-linejoin="round"/></g></g></g></svg>